<?xml version="1.0" encoding="UTF-8" standalone="no"?>
<svg
   width="512"
   height="512"
   viewBox="0 0 256 256"
   fill="none"
   version="1.1"
   id="svg16"
   sodipodi:docname="just-n-logo.svg"
   xml:space="preserve"
   inkscape:version="1.2.2 (b0a8486541, 2022-12-01)"
   inkscape:export-filename="just-n-logo.png"
   inkscape:export-xdpi="96"
   inkscape:export-ydpi="96"
   xmlns:inkscape="http://www.inkscape.org/namespaces/inkscape"
   xmlns:sodipodi="http://sodipodi.sourceforge.net/DTD/sodipodi-0.dtd"
   xmlns="http://www.w3.org/2000/svg"
   xmlns:svg="http://www.w3.org/2000/svg"><sodipodi:namedview
     id="namedview18"
     pagecolor="#ffffff"
     bordercolor="#000000"
     borderopacity="0.25"
     inkscape:showpageshadow="2"
     inkscape:pageopacity="1"
     inkscape:pagecheckerboard="0"
     inkscape:deskcolor="#d1d1d1"
     showgrid="false"
     inkscape:zoom="0.56792219"
     inkscape:cx="448.12477"
     inkscape:cy="-86.279425"
     inkscape:window-width="1920"
     inkscape:window-height="1014"
     inkscape:window-x="1920"
     inkscape:window-y="29"
     inkscape:window-maximized="1"
     inkscape:current-layer="svg16" /><defs
     id="defs4"><style
       id="style2">
      .bubble { fill: #0F62FE; }        /* flat blue */
      .icon  { fill: #FFFFFF; }         /* white glyphs inside */
    </style><clipPath
       clipPathUnits="userSpaceOnUse"
       id="clipPath2114"><rect
         style="fill:none;fill-opacity:1;stroke:#000000;stroke-width:1.70079;stroke-linecap:round;stroke-linejoin:round;stroke-dasharray:1.70079, 3.40157;stop-color:#000000"
         id="rect2116"
         width="179.21237"
         height="180.63469"
         x="38.402649"
         y="-152.18828"
         ry="1.8964272" /></clipPath><filter
       id="mask-powermask-path-effect1114_inverse"
       inkscape:label="filtermask-powermask-path-effect1114"
       style="color-interpolation-filters:sRGB"
       height="100"
       width="100"
       x="-50"
       y="-50"><feColorMatrix
         id="mask-powermask-path-effect1114_primitive1"
         values="1"
         type="saturate"
         result="fbSourceGraphic" /><feColorMatrix
         id="mask-powermask-path-effect1114_primitive2"
         values="-1 0 0 0 1 0 -1 0 0 1 0 0 -1 0 1 0 0 0 1 0 "
         in="fbSourceGraphic" /></filter></defs><!-- Speech bubble (rounded rectangle + tail) --><!-- Bars (statistics) --><!-- Sigma (summation) stylised --><g
     id="g12825"
     transform="matrix(1.5377902,0,0,1.5703491,659.03811,-71.367292)"><g
       id="g12835"
       transform="matrix(1.0344828,0,0,0.99337768,14.54702,0.34440108)"><g
         id="g12815"
         transform="matrix(1,0,0,0.95269081,0,7.3457303)"><g
           id="g402"
           transform="matrix(0.55765292,0,0,0.66551884,-699.98735,90.974885)"
           style="fill:#175589;fill-opacity:0.996078"><path
             id="path6"
             class="bubble"
             d="m 514.74074,-66.259153 c -8.83635,-4.03e-4 -16.00003,7.162389 -16.00073,15.998737 v 84.001072 c -1.2e-4,8.836923 7.16381,16.000613 16.00073,16.00021 h 17.49975 v 18.79994 c -0.0656,3.390934 3.85374,5.319624 6.50046,3.19887 l 27.99996,-21.99881 h 83.99987 c 8.83624,-5.69e-4 15.99909,-7.163974 15.99897,-16.00021 v -84.001072 c -7e-4,-8.835661 -7.16331,-15.998168 -15.99897,-15.998737 z m 33.5355,21.182956 h 68.92553 c 2.94697,-5.86e-4 5.33619,2.388389 5.33591,5.335358 2.8e-4,2.946969 -2.38894,5.335944 -5.33591,5.335358 h -52.47649 l 28.92809,20.970186 c 2.93756,2.130267 2.93756,6.5081429 0,8.6384099 L 564.72528,16.173306 h 52.47649 c 2.9464,-5.86e-4 5.33538,2.387495 5.33591,5.33389 10e-4,2.94754 -2.38837,5.337406 -5.33591,5.33682 h -68.92553 c -5.16919,-0.0021 -7.31507,-6.618167 -3.13114,-9.65383 L 581.42998,-9.1153565 545.1451,-35.422368 c -4.18393,-3.035664 -2.03805,-9.651772 3.13114,-9.653829 z"
             style="fill:#175589;fill-opacity:0.996078"
             sodipodi:nodetypes="ccccccccccccccccccccccccccccc" /></g><rect
           style="fill:#2a76ad;fill-opacity:0.992157;stroke:none;stroke-width:2.48999;stroke-linecap:round;stroke-linejoin:round;stroke-dasharray:none;stop-color:#000000"
           id="rect8857"
           width="20.253302"
           height="24.849953"
           x="-346.88748"
           y="130.42072"
           ry="3.472074" /><rect
           style="fill:#2976af;fill-opacity:0.996078;stroke:none;stroke-width:2.48999;stroke-linecap:round;stroke-linejoin:round;stroke-dasharray:none;stop-color:#000000"
           id="rect8857-9"
           width="20.253304"
           height="64.84996"
           x="-320.56628"
           y="90.420715"
           rx="0"
           ry="3.4584854" /><rect
           style="fill:#165588;fill-opacity:0.996078;stroke:none;stroke-width:2.50252;stroke-linecap:round;stroke-linejoin:round;stroke-dasharray:none;stop-color:#000000"
           id="rect8857-2"
           width="20.355181"
           height="108.3925"
           x="-294.24509"
           y="46.87817"
           ry="3.1664305"
           rx="0" /></g><text
         xml:space="preserve"
         style="font-style:normal;font-variant:normal;font-weight:bold;font-stretch:normal;font-size:49.5724px;line-height:1.25;font-family:FreeSans;-inkscape-font-specification:'FreeSans Bold';text-align:center;text-decoration-color:#000000;word-spacing:0px;text-anchor:middle;fill:#0d3f6e;fill-opacity:0.996078;stroke:none;stroke-width:8.63091;stroke-linecap:round;stroke-linejoin:round;stroke-dasharray:none;stop-color:#000000"
         x="-346.63739"
         y="201.76764"
         id="text8953-9"><tspan
           sodipodi:role="line"
           id="tspan8951-7"
           style="font-style:normal;font-variant:normal;font-weight:bold;font-stretch:normal;font-size:49.5724px;font-family:FreeSans;-inkscape-font-specification:'FreeSans Bold';fill:#0d3f6e;fill-opacity:0.996078;stroke-width:8.63091"
           x="-346.63739"
           y="201.76764">Just-N</tspan></text></g></g></svg>
